<?xml version="1.0" standalone="no"?>
<!DOCTYPE svg PUBLIC "-//W3C//DTD SVG 20010904//EN"
 "http://www.w3.org/TR/2001/REC-SVG-20010904/DTD/svg10.dtd">
<svg version="1.0" xmlns="http://www.w3.org/2000/svg"
 width="269.000000pt" height="271.000000pt" viewBox="0 0 269.000000 271.000000"
 preserveAspectRatio="xMidYMid meet">

<g transform="translate(0.000000,271.000000) scale(0.100000,-0.100000)"
fill="#494F55" stroke="none">
<path d="M1195 2589 c-617 -79 -1085 -609 -1085 -1228 0 -549 355 -1031 880
-1196 240 -75 514 -71 756 10 88 30 230 99 261 128 73 67 35 191 -64 204 -31
4 -54 -3 -128 -41 -174 -88 -330 -122 -510 -113 -426 23 -780 297 -908 703
-110 348 -13 738 247 1000 127 128 310 229 491 270 125 29 340 25 467 -9 351
-93 621 -363 715 -715 23 -83 26 -118 27 -247 0 -124 -4 -166 -23 -242 -27
-111 -52 -151 -111 -180 -89 -46 -191 -15 -239 72 -14 26 -17 85 -21 452 l-5
423 -33 32 c-28 28 -39 33 -82 33 -40 0 -54 -5 -79 -29 -16 -16 -33 -41 -36
-56 l-6 -28 -57 34 c-94 57 -180 79 -307 79 -119 0 -169 -12 -280 -68 -86 -43
-202 -162 -249 -254 -120 -240 -77 -504 113 -694 208 -208 513 -237 759 -73
57 39 67 43 75 29 26 -47 99 -121 147 -151 233 -142 532 -31 618 229 44 134
57 224 57 392 -1 177 -16 268 -67 415 -193 547 -750 892 -1323 819z m301 -913
c77 -35 145 -103 181 -180 24 -52 28 -74 28 -146 0 -72 -4 -94 -28 -146 -36
-77 -104 -145 -182 -181 -51 -24 -73 -28 -145 -28 -72 0 -94 4 -145 28 -78 36
-146 104 -182 181 -24 52 -28 74 -28 146 0 72 4 94 28 145 86 183 293 263 473
181z"/>
</g>
</svg>
